<?xml version="1.0" standalone="no"?><!DOCTYPE svg PUBLIC "-//W3C//DTD SVG 1.1//EN" "http://www.w3.org/Graphics/SVG/1.1/DTD/svg11.dtd"><svg class="icon" width="48px" height="48.00px" viewBox="0 0 1024 1024" version="1.1" xmlns="http://www.w3.org/2000/svg"><path fill="#A2A6A9" d="M511.984 1023.989c-69.099325 0-136.19867-13.599867-199.298054-40.199607-60.999404-25.799748-115.69887-62.699388-162.698411-109.698929-46.999541-46.999541-83.99918-101.799006-109.698928-162.698411-26.699739-63.099384-40.199607-130.198729-40.199608-199.298054 0-69.099325 13.599867-136.19867 40.199608-199.298054 25.699749-61.099403 62.599389-115.798869 109.598929-162.898409s101.799006-83.99918 162.698411-109.698929c63.099384-26.699739 130.198729-40.199607 199.298054-40.199607 104.198982 0 204.598002 31.099696 290.097167 90.09912 13.699866 9.399908 17.199832 28.199725 7.699925 41.899591-9.399908 13.699866-28.199725 17.199832-41.899591 7.699925-75.499263-51.999492-163.898399-79.399225-255.897501-79.399225-60.999404-0.199998-120.198826 11.799885-175.898282 35.399654-53.799475 22.799777-102.099003 55.399459-143.598598 96.799055-41.499595 41.499595-74.099276 89.799123-96.799054 143.598598-23.499771 55.699456-35.499653 114.898878-35.499654 175.898282s11.999883 120.198826 35.499654 175.898282c22.799777 53.799475 55.399459 102.099003 96.799054 143.598598 41.499595 41.499595 89.799123 74.099276 143.598598 96.799055 55.699456 23.499771 114.898878 35.499653 175.898282 35.499653s120.198826-11.999883 175.898282-35.499653c53.799475-22.799777 102.099003-55.399459 143.598598-96.799055 41.499595-41.499595 74.099276-89.799123 96.799055-143.598598 23.499771-55.699456 35.499653-114.898878 35.499653-175.898282 0-61.799396-12.29988-121.798811-36.399644-178.098261-6.599936-15.199852 0.499995-32.999678 15.799845-39.599613 15.199852-6.599936 32.999678 0.499995 39.599614 15.799846 27.399732 63.799377 41.399596 131.798713 41.399595 201.898028 0 69.099325-13.599867 136.19867-40.199607 199.298054-25.799748 60.999404-62.699388 115.69887-109.698929 162.698411-46.999541 46.999541-101.799006 83.99918-162.698411 109.698929-63.399381 26.799738-130.398727 40.299606-199.498052 40.299606zM515.587965 545.556672c-16.599838 0-30.099706-13.399869-30.099706-30.099706v-318.896886c0-16.599838 13.399869-30.099706 30.099706-30.099706 16.599838 0 30.099706 13.399869 30.099706 30.099706v318.896886c-0.099999 16.699837-13.499868 30.099706-30.099706 30.099706zM728.585885 733.954832c-7.099931 0-14.199861-2.399977-19.899806-7.499926l-212.597924-187.298171c-12.499878-10.999893-13.699866-30.099706-2.599974-42.499585 10.999893-12.499878 30.099706-13.699866 42.499585-2.599975l212.697923 187.39817c12.499878 10.999893 13.699866 30.099706 2.599974 42.499585-5.999941 6.599936-14.29986 9.999902-22.699778 9.999902z" /></svg>