<?xml version="1.0" standalone="no"?><!DOCTYPE svg PUBLIC "-//W3C//DTD SVG 1.1//EN" "http://www.w3.org/Graphics/SVG/1.1/DTD/svg11.dtd"><svg class="icon" width="48px" height="48.00px" viewBox="0 0 1024 1024" version="1.1" xmlns="http://www.w3.org/2000/svg"><path fill="#A2A6A9" d="M889.508401 877.91997 134.098649 877.91997c-39.053458 0-70.819952-31.769564-70.819952-70.821999l0-94.424556c0-13.002129 10.55745-23.606651 23.606651-23.606651 13.048177 0 23.605627 10.604522 23.605627 23.606651l0 94.424556c0 13.003152 10.558473 23.606651 23.606651 23.606651l755.409752 0c13.001105 0 23.605627-10.603499 23.605627-23.606651l0-94.424556c0-13.002129 10.606569-23.606651 23.606651-23.606651 13.002129 0 23.606651 10.604522 23.606651 23.606651l0 94.424556C960.328353 846.150406 928.562882 877.91997 889.508401 877.91997zM764.559645 389.073296 528.541233 153.007813c-9.223059-9.197476-24.205285-9.197476-33.382295 0L259.093455 389.073296c-9.221012 9.197476-9.221012 24.182772 0 33.381271 9.175987 9.199523 24.160259 9.199523 33.381271 0l195.721637-195.745173 0 485.96402c0 13.001105 10.55745 23.604604 23.606651 23.604604s23.606651-10.603499 23.606651-23.604604L535.409664 226.709395 731.179396 422.454568c4.611018 4.634554 10.650571 6.892991 16.689101 6.892991 6.040576 0 12.081153-2.305509 16.692171-6.892991C773.78168 413.256068 773.78168 398.270772 764.559645 389.073296z" /></svg>