<?xml version="1.0" standalone="no"?><!DOCTYPE svg PUBLIC "-//W3C//DTD SVG 1.1//EN" "http://www.w3.org/Graphics/SVG/1.1/DTD/svg11.dtd"><svg class="icon" width="48px" height="48.00px" viewBox="0 0 1024 1024" version="1.1" xmlns="http://www.w3.org/2000/svg"><path fill="#A2A6A9" d="M951.714673 406.54625c-8.116865-24.772196-29.187763-42.49893-54.998615-46.26572l-163.762761-23.798009c-9.221012-1.39579-18.733667 1.038656-26.297946 6.688329-7.629771 5.681396-12.565177 13.992689-13.895475 23.343661-1.364067 9.41544 1.006933 18.765389 6.688329 26.363438 5.681396 7.629771 13.960966 12.564154 23.343661 13.895475l158.081365 22.953781-171.035398 166.749792c-8.344039 8.149611-12.175297 19.902282-10.162454 31.395034l40.388872 235.449453L528.57449 752.122893c-10.389628-5.519714-22.726607-5.486968-33.050744-0.032746L284.002262 863.321484l40.388872-235.416707c1.980097-11.395538-1.818415-23.149233-10.194176-31.42778L143.096069 429.727205l236.423641-34.350342c11.525498-1.622964 21.493523-8.895601 26.78504-19.415189l105.711624-214.21585 88.861864 180.158173c8.733918 17.435091 30.129204 24.577768 47.564295 16.006556 17.499559-8.733918 24.707728-30.064736 16.10377-47.53155l-91.426269-185.126324c-11.590989-23.440875-34.999119-38.018895-61.102636-38.018895-26.070772 0-49.479925 14.545274-61.135382 38.018895l-99.933013 202.593138-223.599567 32.499182c-25.810852 3.668553-46.88175 21.428032-55.031361 46.330188-8.116865 24.804942-1.493004 51.589982 17.206894 69.901023l161.879877 157.691485L213.158774 856.958566c-4.448312 25.746384 5.941316 51.297316 27.077705 66.654073 21.200858 15.421224 48.667419 17.435091 71.752184 5.227048l200.027709-105.160061 199.995987 105.127316c9.837042 5.194302 20.810978 7.954159 31.752168 7.954159 14.349823 0 28.180829-4.545526 40.064484-13.149485 21.168112-15.45397 31.524994-40.97318 27.04496-66.62235l-38.213323-222.722594 161.879877-157.854191C953.175955 458.266192 959.766047 431.512874 951.714673 406.54625z" /></svg>